#N canvas 979 164 749 586 12;
#X obj 40 -141 netreceive -u -b;
#X obj 41 -108 oscparse;
#X msg 147 -191 listen 0;
#X obj 40 -73 list trim;
#X obj 38 -22 route kls;
#X obj 37 6 route io;
#X obj 37 43 route crank;
#X floatatom 35 75 5 0 0 0 - - -, f 5;
#X obj 39 261 ctlout;
#X floatatom 124 229 5 0 0 0 - - -, f 5;
#X msg 122 185 1;
#X obj 122 158 loadbang;
#X msg 38 230 1;
#X text 38 203 control;
#X obj 36 130 t b f b;
#X text 162 186 channel;
#X msg 37 -190 listen 9010;
#X floatatom 180 -30 5 0 0 0 - - -, f 5;
#X obj 181 3 min 127;
#X obj 181 31 max 0;
#X floatatom 182 59 5 0 0 0 - - -, f 5;
#X obj 180 -58 hsl 128 15 0 127 0 0 empty empty empty -2 -8 0 10 #fcfcfc
#000000 #000000 450 1;
#X connect 0 0 1 0;
#X connect 1 0 3 0;
#X connect 2 0 0 0;
#X connect 3 0 4 0;
#X connect 4 0 5 0;
#X connect 5 0 6 0;
#X connect 6 0 7 0;
#X connect 7 0 14 0;
#X connect 9 0 8 2;
#X connect 10 0 9 0;
#X connect 11 0 10 0;
#X connect 12 0 8 1;
#X connect 14 0 12 0;
#X connect 14 1 8 0;
#X connect 14 2 10 0;
#X connect 16 0 0 0;
#X connect 17 0 18 0;
#X connect 18 0 19 0;
#X connect 19 0 20 0;
#X connect 20 0 7 0;
#X connect 21 0 17 0;
