#N canvas 1027 82 749 586 12;
#X msg 37 -190 listen 8000;
#X obj 40 -141 netreceive -u -b;
#X obj 41 -108 oscparse;
#X msg 147 -191 listen 0;
#X obj 40 -73 list trim;
#X obj 38 -22 route kls;
#X obj 37 6 route io;
#X obj 37 43 route crank;
#X floatatom 35 75 5 0 0 0 - - -, f 5;
#X obj 39 261 ctlout;
#X floatatom 124 229 5 0 0 0 - - -, f 5;
#X msg 122 185 1;
#X obj 122 158 loadbang;
#X msg 38 230 1;
#X text 38 203 control;
#X obj 36 130 t b f b;
#X text 162 186 channel;
#X connect 0 0 1 0;
#X connect 1 0 2 0;
#X connect 2 0 4 0;
#X connect 3 0 1 0;
#X connect 4 0 5 0;
#X connect 5 0 6 0;
#X connect 6 0 7 0;
#X connect 7 0 8 0;
#X connect 8 0 15 0;
#X connect 10 0 9 2;
#X connect 11 0 10 0;
#X connect 12 0 11 0;
#X connect 13 0 9 0;
#X connect 15 0 13 0;
#X connect 15 1 9 1;
#X connect 15 2 11 0;
