#N canvas 1 132 1687 802 12;
#X obj 1269 187 soundfiler;
#X obj 1269 128 pack s \$0;
#X obj 457 86 hsl 320 19 0 1 0 0 empty empty position\ in\ sample\ 0..1
-2 -10 0 12 #fcfcfc #000000 #000000 24242 1;
#X obj 902 419 +~ 0.5;
#X obj 902 443 wrap~;
#N canvas 295 332 450 500 create_hanning 0;
#X msg 59 126 1027;
#X obj 59 150 until;
#X obj 90 174 + 1;
#X obj 59 259 / 1024;
#X obj 59 235 - 1;
#X obj 59 283 clip 0 1;
#X obj 59 343 cos;
#X obj 59 52 loadbang;
#X obj 166 234 atan;
#X floatatom 166 282 5 0 0 0 - - -, f 5;
#X msg 166 210 1;
#X obj 59 319 *;
#X obj 59 197 t f f;
#X obj 59 425 tabwrite \$0-hanning;
#X obj 166 258 * 8;
#X obj 59 81 t b b;
#X obj 59 379 - 1;
#X obj 59 402 * -0.5;
#X obj 59 174 f;
#X connect 0 0 1 0;
#X connect 1 0 18 0;
#X connect 2 0 18 1;
#X connect 3 0 5 0;
#X connect 4 0 3 0;
#X connect 5 0 11 0;
#X connect 6 0 16 0;
#X connect 7 0 15 0;
#X connect 8 0 14 0;
#X connect 9 0 11 1;
#X connect 10 0 8 0;
#X connect 11 0 6 0;
#X connect 12 0 4 0;
#X connect 12 1 13 1;
#X connect 14 0 9 0;
#X connect 15 0 0 0;
#X connect 15 1 10 0;
#X connect 16 0 17 0;
#X connect 17 0 13 0;
#X connect 18 0 2 0;
#X connect 18 0 12 0;
#X restore 1369 187 pd create_hanning;
#X obj 1269 295 array define \$0-hanning 1027;
#X obj 902 569 *~ 1024;
#X obj 902 593 +~ 1;
#X obj 588 569 *~ 1024;
#X obj 588 593 +~ 1;
#X obj 452 483 samphold~;
#X obj 765 483 samphold~;
#X obj 902 617 tabread4~ \$0-hanning;
#X obj 588 617 tabread4~ \$0-hanning;
#X obj 1269 222 s \$0-sound-size;
#X msg 1269 152 read -resize \$1 \$2-sound;
#X obj 1269 271 array define \$0-sound;
#X obj 470 168 r \$0-sound-size;
#X obj 452 302 line~;
#X obj 452 191 *;
#X obj 452 518 +~;
#X obj 765 518 +~;
#X obj 765 542 tabread4~ \$0-sound;
#X obj 452 542 tabread4~ \$0-sound;
#X obj 452 636 *~;
#X obj 765 636 *~;
#X obj 452 659 +~;
#X obj 434 724 dac~;
#X msg 1351 84 groove_00.wav;
#X obj 846 89 hsl 162 19 1 100 1 1 empty empty frequency\ of\ switch
-2 -10 0 12 #fcfcfc #000000 #000000 10000 1;
#X obj 842 177 pow -1;
#X obj 842 261 *;
#X obj 900 137 phasor~;
#X obj 534 500 *~;
#X obj 847 499 *~;
#X obj 918 177 loadbang;
#X obj 918 201 samplerate~;
#X obj 470 382 noise~;
#X obj 783 382 noise~;
#X text 519 381 slightly randomize position;
#X obj 452 460 clip~ 0 1;
#X obj 765 460 clip~ 0 1;
#X obj 452 431 +~;
#X obj 765 431 +~;
#X obj 825 296 r \$0-sound-size;
#X obj 825 347 -;
#X obj 842 321 t b f;
#X floatatom 806 88 5 0 0 0 - - -, f 5;
#X obj 918 225 t b f;
#X obj 380 636 line~;
#X obj 380 587 > 0;
#X obj 434 686 *~;
#X obj 452 214 -;
#X text 409 588 fade out at pos:0;
#X msg 452 238 \$1 100;
#X msg 380 611 \$1 100;
#X text 483 192 max_range = sound_samples - window_samples;
#X text 938 592 + 1 to consider 4-point-interpolation of array;
#X text 876 498 phasor over window size;
#X text 946 443 offset of 0.5 between both windows;
#X obj 588 443 +~;
#X obj 470 406 *~ 4000;
#X obj 783 406 *~ 4000;
#X text 868 262 sound duration in samples;
#X obj 1269 84 openpanel;
#X obj 1269 56 bng 15 250 50 0 empty empty empty 17 7 0 10 #fcfcfc
#000000 #000000;
#X floatatom 417 85 5 0 0 0 - - -, f 5;
#X msg 45 86 listen 8000;
#X obj 48 135 netreceive -u -b;
#X obj 49 168 oscparse;
#X msg 155 85 listen 0;
#X obj 48 203 list trim;
#X obj 46 254 route kls;
#X obj 45 282 route io;
#X obj 45 319 route crank;
#X obj 42 384 / 127;
#X floatatom 43 351 5 0 0 0 - - -, f 5;
#X text 1452 84 <- or filename here;
#X connect 0 0 15 0;
#X connect 1 0 16 0;
#X connect 2 0 20 0;
#X connect 2 0 51 0;
#X connect 2 0 67 0;
#X connect 3 0 4 0;
#X connect 4 0 7 0;
#X connect 4 0 12 1;
#X connect 4 0 35 0;
#X connect 7 0 8 0;
#X connect 8 0 13 0;
#X connect 9 0 10 0;
#X connect 10 0 14 0;
#X connect 11 0 21 0;
#X connect 12 0 22 0;
#X connect 13 0 26 1;
#X connect 14 0 25 1;
#X connect 16 0 0 0;
#X connect 18 0 20 1;
#X connect 19 0 43 0;
#X connect 19 0 44 0;
#X connect 20 0 53 0;
#X connect 21 0 24 0;
#X connect 22 0 23 0;
#X connect 23 0 26 0;
#X connect 24 0 25 0;
#X connect 25 0 27 0;
#X connect 26 0 27 1;
#X connect 27 0 52 1;
#X connect 29 0 1 0;
#X connect 30 0 31 0;
#X connect 30 0 33 0;
#X connect 30 0 48 0;
#X connect 31 0 32 0;
#X connect 32 0 34 1;
#X connect 32 0 35 1;
#X connect 32 0 47 0;
#X connect 32 0 53 1;
#X connect 33 0 3 0;
#X connect 33 0 61 0;
#X connect 34 0 21 1;
#X connect 35 0 22 1;
#X connect 36 0 37 0;
#X connect 37 0 49 0;
#X connect 38 0 62 0;
#X connect 39 0 63 0;
#X connect 41 0 11 0;
#X connect 42 0 12 0;
#X connect 43 0 41 0;
#X connect 44 0 42 0;
#X connect 45 0 46 0;
#X connect 46 0 41 2;
#X connect 46 0 42 2;
#X connect 47 0 46 0;
#X connect 47 1 46 1;
#X connect 49 0 32 0;
#X connect 49 1 32 1;
#X connect 50 0 52 0;
#X connect 51 0 56 0;
#X connect 52 0 28 0;
#X connect 52 0 28 1;
#X connect 53 0 55 0;
#X connect 55 0 19 0;
#X connect 56 0 50 0;
#X connect 61 0 9 0;
#X connect 61 0 11 1;
#X connect 61 0 34 0;
#X connect 62 0 43 1;
#X connect 63 0 44 1;
#X connect 65 0 1 0;
#X connect 66 0 65 0;
#X connect 68 0 69 0;
#X connect 69 0 70 0;
#X connect 70 0 72 0;
#X connect 71 0 69 0;
#X connect 72 0 73 0;
#X connect 73 0 74 0;
#X connect 74 0 75 0;
#X connect 75 0 77 0;
#X connect 76 0 2 0;
#X connect 77 0 76 0;
